<?xml version="1.0" encoding="UTF-8"?>
<svg xmlns:xlink="http://www.w3.org/1999/xlink" width="232px" height="92px" viewBox="0 0 232 92" version="1.1"
     xmlns="http://www.w3.org/2000/svg">
    <title>Group 3</title>
    <defs>
        <rect id="path-1" x="0" y="0" width="29.9805195" height="19.3038041"></rect>
        <mask id="mask-2" maskContentUnits="userSpaceOnUse" maskUnits="objectBoundingBox" x="0" y="0" width="29.9805195"
              height="19.3038041" fill="white">
            <use xlink:href="#path-1"></use>
        </mask>
        <path d="M8.42045455,7.08997742 C10.209104,7.08997742 11.6590909,8.22365278 11.6590909,9.62211221 L11.6590909,9.62211221 L11.6590909,10.6349661 C11.6590909,10.914658 11.3690935,11.1413931 11.0113636,11.1413931 C10.6536337,11.1413931 10.3636364,10.914658 10.3636364,10.6349661 L10.3636364,10.6349661 L10.3636364,9.62211221 C10.3636364,8.78303655 9.49364423,8.10283134 8.42045455,8.10283134 L8.42045455,8.10283134 L3.23863636,8.10283134 C2.16544668,8.10283134 1.29545455,8.78303655 1.29545455,9.62211221 L1.29545455,9.62211221 L1.29545455,10.6349661 C1.29545455,10.914658 1.00545717,11.1413931 0.647727273,11.1413931 C0.289997378,11.1413931 0,10.914658 0,10.6349661 L0,10.6349661 L0,9.62211221 C0,8.22365278 1.44998689,7.08997742 3.23863636,7.08997742 L3.23863636,7.08997742 Z M13.0126292,7.1577756 L13.1164771,7.17189405 C14.5455244,7.46038029 15.5443535,8.46778857 15.5454545,9.62211221 L15.5454545,9.62211221 L15.5454545,10.6349661 C15.5454545,10.914658 15.2554572,11.1413931 14.8977273,11.1413931 C14.5399974,11.1413931 14.25,10.914658 14.25,10.6349661 L14.25,10.6349661 L14.2500002,9.62248996 C14.2493396,8.93012242 13.6500422,8.32567745 12.7926138,8.15258571 C12.4462433,8.08266282 12.2379538,7.80644381 12.3273862,7.53563328 C12.4168185,7.26482276 12.7701066,7.10197116 13.1164771,7.17189405 Z M5.82954545,1.01285392 C7.61819493,1.01285392 9.06818182,2.14652928 9.06818182,3.54498871 C9.06818182,4.94344814 7.61819493,6.0771235 5.82954545,6.0771235 C4.04089598,6.0771235 2.59090909,4.94344814 2.59090909,3.54498871 C2.59090909,2.14652928 4.04089598,1.01285392 5.82954545,1.01285392 Z M9.73615057,1.45950265 C9.8248816,1.18855114 10.1777473,1.02514072 10.5242981,1.09451526 C11.9573257,1.38138701 12.9596257,2.39096267 12.9596257,3.54752084 C12.9596257,4.70407901 11.9573257,5.71365468 10.5242981,6.00052642 C10.1777473,6.06990097 9.8248816,5.90649055 9.73615057,5.63553904 C9.64741954,5.36458752 9.85642378,5.08869874 10.2029746,5.01932419 C11.0627912,4.84720114 11.6641712,4.24145575 11.6641712,3.54752084 C11.6641712,2.85358594 11.0627912,2.24784054 10.2029746,2.0757175 C9.85642378,2.00634295 9.64741954,1.73045416 9.73615057,1.45950265 Z M5.82954545,2.02570783 C4.75635577,2.02570783 3.88636364,2.70591305 3.88636364,3.54498871 C3.88636364,4.38406437 4.75635577,5.06426958 5.82954545,5.06426958 C6.90273514,5.06426958 7.77272727,4.38406437 7.77272727,3.54498871 C7.77272727,2.70591305 6.90273514,2.02570783 5.82954545,2.02570783 Z"
              id="path-3"></path>
        <text id="text-5" font-family="LucidaGrande, Lucida Grande" font-size="36" font-weight="normal">
            <tspan x="52.3469388" y="45.7243356">Consil</tspan>
        </text>
        <filter x="-5.4%" y="-10.5%" width="110.7%" height="134.9%" filterUnits="objectBoundingBox" id="filter-6">
            <feOffset dx="0" dy="3" in="SourceAlpha" result="shadowOffsetOuter1"></feOffset>
            <feGaussianBlur stdDeviation="2" in="shadowOffsetOuter1" result="shadowBlurOuter1"></feGaussianBlur>
            <feColorMatrix values="0 0 0 0 0   0 0 0 0 0   0 0 0 0 0  0 0 0 0.5 0" type="matrix"
                           in="shadowBlurOuter1"></feColorMatrix>
        </filter>
        <text id="text-7" font-family="LucidaGrande, Lucida Grande" font-size="36" font-weight="normal">
            <tspan x="82.5918367" y="76.467431">Board</tspan>
        </text>
        <filter x="-5.2%" y="-10.5%" width="110.3%" height="134.9%" filterUnits="objectBoundingBox" id="filter-8">
            <feOffset dx="0" dy="3" in="SourceAlpha" result="shadowOffsetOuter1"></feOffset>
            <feGaussianBlur stdDeviation="2" in="shadowOffsetOuter1" result="shadowBlurOuter1"></feGaussianBlur>
            <feColorMatrix values="0 0 0 0 0   0 0 0 0 0   0 0 0 0 0  0 0 0 0.5 0" type="matrix"
                           in="shadowBlurOuter1"></feColorMatrix>
        </filter>
    </defs>
    <g id="Page-1" stroke="none" stroke-width="1" fill="none" fill-rule="evenodd">
        <g id="Logo" transform="translate(-119.000000, -324.000000)">
            <g id="Group-2" transform="translate(119.000000, 324.000000)">
                <g id="Group-Copy">
                    <use id="Rectangle-Copy-2" stroke="#979797" mask="url(#mask-2)" stroke-width="2"
                         stroke-dasharray="10" xlink:href="#path-1"></use>
                    <path d="M43.3051948,10.0093799 L73.2857143,10.0093799 L73.2857143,29.3131839 L43.3051948,29.3131839 L43.3051948,10.0093799 Z"
                          id="Rectangle-Copy-4" fill-opacity="0.2" fill="#154945"></path>
                    <path d="M43.3051948,32.8879625 L73.2857143,32.8879625 L73.2857143,52.1917665 L43.3051948,52.1917665 L43.3051948,32.8879625 Z"
                          id="Rectangle-Copy-5" fill-opacity="0.2" fill="#87A428"></path>
                    <rect id="Rectangle-Copy-6" fill-opacity="0.5" fill="#D8DBD6" x="8.88311688" y="28.5982282"
                          width="29.9805195" height="19.3038041"></rect>
                    <g id="Group" transform="translate(16.655844, 32.173007)" opacity="0.461890811">
                        <g id="users-copy">
                            <mask id="mask-4" fill="white">
                                <use xlink:href="#path-3"></use>
                            </mask>
                            <use id="Combined-Shape" fill="#000000" fill-rule="nonzero" xlink:href="#path-3"></use>
                            <g id="Group" mask="url(#mask-4)" fill="#000000">
                                <g id="🎨Color">
                                    <rect id="Rectangle" x="0" y="0" width="15.5454545" height="12.154247"></rect>
                                </g>
                            </g>
                        </g>
                    </g>
                </g>
                <g id="Consil" fill-rule="nonzero" fill="#154945">
                    <use fill-opacity="1" filter="url(#filter-6)" xlink:href="#text-5"></use>
                    <use xlink:href="#text-5"></use>
                    <use fill-opacity="1" xlink:href="#text-5"></use>
                </g>
                <g id="Board" fill-rule="nonzero" fill="#007000">
                    <use fill-opacity="1" filter="url(#filter-8)" xlink:href="#text-7"></use>
                    <use xlink:href="#text-7"></use>
                    <use fill-opacity="1" xlink:href="#text-7"></use>
                </g>
            </g>
        </g>
    </g>
</svg>