<?xml version="1.0" encoding="UTF-8"?>
<svg xmlns:xlink="http://www.w3.org/1999/xlink" width="144px" height="151px" viewBox="0 0 144 151" version="1.1"
     xmlns="http://www.w3.org/2000/svg">
    <title>Group</title>
    <defs>
        <rect id="path-1" x="0" y="0" width="58" height="55"></rect>
        <mask id="mask-2" maskContentUnits="userSpaceOnUse" maskUnits="objectBoundingBox" x="0" y="0" width="58"
              height="55" fill="white">
            <use xlink:href="#path-1"></use>
        </mask>
        <linearGradient x1="26.9590119%" y1="19.3997628%" x2="50%" y2="100%" id="linearGradient-3">
            <stop stop-color="#387876" offset="0%"></stop>
            <stop stop-color="#1A4341" offset="100%"></stop>
        </linearGradient>
        <path d="M16.7916667,20.4166667 C20.3585057,20.4166667 23.25,23.681257 23.25,27.7083333 L23.25,27.7083333 L23.25,30.625 C23.25,31.4304153 22.6717011,32.0833333 21.9583333,32.0833333 C21.2449655,32.0833333 20.6666667,31.4304153 20.6666667,30.625 L20.6666667,30.625 L20.6666667,27.7083333 C20.6666667,25.2920876 18.9317701,23.3333333 16.7916667,23.3333333 L16.7916667,23.3333333 L6.45833333,23.3333333 C4.31822993,23.3333333 2.58333333,25.2920876 2.58333333,27.7083333 L2.58333333,27.7083333 L2.58333333,30.625 C2.58333333,31.4304153 2.00503447,32.0833333 1.29166667,32.0833333 C0.578298865,32.0833333 0,31.4304153 0,30.625 L0,30.625 L0,27.7083333 C0,23.681257 2.89149432,20.4166667 6.45833333,20.4166667 L6.45833333,20.4166667 Z M24.5826824,21.7000004 C24.7610241,20.9201604 25.4655342,20.4512045 26.1562496,20.6525581 C29.0059873,21.483298 30.9978043,24.3842831 31,27.7083333 L31,27.7083333 L31,30.625 C31,31.4304153 30.4217011,32.0833333 29.7083333,32.0833333 C28.9949655,32.0833333 28.4166667,31.4304153 28.4166667,30.625 L28.4166667,30.625 L28.416667,27.7094211 C28.4153498,25.7156436 27.2202596,23.9750526 25.510417,23.4766086 C24.8197016,23.275255 24.4043406,22.4798404 24.5826824,21.7000004 Z M11.625,2.91666667 C15.191839,2.91666667 18.0833333,6.18125703 18.0833333,10.2083333 C18.0833333,14.2354096 15.191839,17.5 11.625,17.5 C8.05816099,17.5 5.16666667,14.2354096 5.16666667,10.2083333 C5.16666667,6.18125703 8.05816099,2.91666667 11.625,2.91666667 Z M19.4153646,4.20285952 C19.5923078,3.42261349 20.2959756,2.95204837 20.9870506,3.15182292 C23.8447256,3.97791368 25.8434642,6.88514011 25.8434642,10.215625 C25.8434642,13.5461099 23.8447256,16.4533363 20.9870506,17.2794271 C20.2959756,17.4792016 19.5923078,17.0086365 19.4153646,16.2283905 C19.2384214,15.4481444 19.6552077,14.6536808 20.3462827,14.4539062 C22.0608877,13.9582518 23.2601309,12.2139159 23.2601309,10.215625 C23.2601309,8.21733407 22.0608877,6.47299821 20.3462827,5.97734375 C19.6552077,5.7775692 19.2384214,4.98310555 19.4153646,4.20285952 Z M11.625,5.83333333 C9.48489659,5.83333333 7.75,7.79208755 7.75,10.2083333 C7.75,12.6245791 9.48489659,14.5833333 11.625,14.5833333 C13.7651034,14.5833333 15.5,12.6245791 15.5,10.2083333 C15.5,7.79208755 13.7651034,5.83333333 11.625,5.83333333 Z"
              id="path-4"></path>
    </defs>
    <g id="Page-1" stroke="none" stroke-width="1" fill="none" fill-rule="evenodd">
        <g id="Logo" transform="translate(-87.000000, -92.000000)">
            <g id="Group" transform="translate(87.000000, 92.000000)">
                <use id="Rectangle-Copy-2" stroke="#979797" mask="url(#mask-2)" stroke-width="2" stroke-dasharray="10"
                     xlink:href="#path-1"></use>
                <path d="M86,28 L144,28 L144,83 L86,83 L86,28 Z" id="Rectangle-Copy-4" fill-opacity="0.2"
                      fill="#154945"></path>
                <path d="M86,96 L144,96 L144,151 L86,151 L86,96 Z" id="Rectangle-Copy-5" fill-opacity="0.2"
                      fill="#87A428"></path>
                <rect id="Rectangle-Copy-6" fill-opacity="0.5" fill="#D8DBD6" x="19" y="83" width="58"
                      height="55"></rect>
                <text id="C" fill="url(#linearGradient-3)" fill-rule="nonzero"
                      font-family="HelveticaNeue-BoldItalic, Helvetica Neue" font-size="72" font-style="italic"
                      font-weight="bold">
                    <tspan x="29" y="75">C</tspan>
                </text>
                <text id="B" fill="#87A428" fill-rule="nonzero" font-family="HelveticaNeue-BoldItalic, Helvetica Neue"
                      font-size="72" font-style="italic" font-weight="bold">
                    <tspan x="67" y="120">B</tspan>
                </text>
                <g transform="translate(32.000000, 92.000000)" id="users-copy" opacity="0.461890811">
                    <g>
                        <mask id="mask-5" fill="white">
                            <use xlink:href="#path-4"></use>
                        </mask>
                        <use id="Combined-Shape" fill="#000000" fill-rule="nonzero" xlink:href="#path-4"></use>
                        <g id="Group" mask="url(#mask-5)" fill="#000000">
                            <g id="🎨Color">
                                <rect id="Rectangle" x="0" y="0" width="31" height="35"></rect>
                            </g>
                        </g>
                    </g>
                </g>
            </g>
        </g>
    </g>
</svg>