<?xml version="1.0" encoding="UTF-8"?>
<svg width="65px" height="69px" viewBox="0 0 65 69" version="1.1" xmlns="http://www.w3.org/2000/svg" xmlns:xlink="http://www.w3.org/1999/xlink">
    <title>Group 4</title>
    <defs>
        <rect id="path-1" x="0" y="0" width="26.4534884" height="25.2772277"></rect>
        <mask id="mask-2" maskContentUnits="userSpaceOnUse" maskUnits="objectBoundingBox" x="0" y="0" width="26.4534884" height="25.2772277" fill="white">
            <use xlink:href="#path-1"></use>
        </mask>
        <path d="M7.77858527,9.56435644 C9.43089066,9.56435644 10.7703488,11.0936808 10.7703488,12.980198 L10.7703488,12.980198 L10.7703488,14.3465347 C10.7703488,14.7238381 10.5024572,15.029703 10.1719961,15.029703 C9.84153505,15.029703 9.57364341,14.7238381 9.57364341,14.3465347 L9.57364341,14.3465347 L9.57364341,12.980198 C9.57364341,11.8482877 8.76996851,10.9306931 7.77858527,10.9306931 L7.77858527,10.9306931 L2.99176357,10.9306931 C2.00038033,10.9306931 1.19670543,11.8482877 1.19670543,12.980198 L1.19670543,12.980198 L1.19670543,14.3465347 C1.19670543,14.7238381 0.928813792,15.029703 0.598352713,15.029703 C0.267891635,15.029703 0,14.7238381 0,14.3465347 L0,14.3465347 L0,12.980198 C0,11.0936808 1.33945817,9.56435644 2.99176357,9.56435644 L2.99176357,9.56435644 Z M11.3877017,10.1655447 C11.4703169,9.80022223 11.7966747,9.58053595 12.1166423,9.67486171 C13.436757,10.0640287 14.359448,11.4230192 14.3604651,12.980198 L14.3604651,12.980198 L14.3604651,14.3465347 C14.3604651,14.7238381 14.0925735,15.029703 13.7621124,15.029703 C13.4316513,15.029703 13.1637597,14.7238381 13.1637597,14.3465347 L13.1637597,14.3465347 L13.1637599,12.9807076 C13.1631497,12.046706 12.6095351,11.2313118 11.8174663,10.9978116 C11.4974987,10.9034858 11.3050865,10.5308673 11.3877017,10.1655447 Z M5.38517442,1.36633663 C7.03747981,1.36633663 8.37693798,2.895661 8.37693798,4.78217822 C8.37693798,6.66869543 7.03747981,8.1980198 5.38517442,8.1980198 C3.73286903,8.1980198 2.39341085,6.66869543 2.39341085,4.78217822 C2.39341085,2.895661 3.73286903,1.36633663 5.38517442,1.36633663 Z M8.99398922,1.96886432 C9.07595652,1.60335161 9.40192416,1.38291149 9.72205833,1.47649752 C11.04585,1.86348658 11.9717473,3.22540086 11.9717473,4.78559406 C11.9717473,6.34578726 11.04585,7.70770154 9.72205833,8.09469059 C9.40192416,8.18827663 9.07595652,7.96783651 8.99398922,7.6023238 C8.91202192,7.23681109 9.10509432,6.86463802 9.42522849,6.77105198 C10.2195035,6.53885855 10.7750419,5.72170998 10.7750419,4.78559406 C10.7750419,3.84947814 10.2195035,3.03232957 9.42522849,2.80013614 C9.10509432,2.7065501 8.91202192,2.33437703 8.99398922,1.96886432 Z M5.38517442,2.73267327 C4.39379118,2.73267327 3.59011628,3.65026789 3.59011628,4.78217822 C3.59011628,5.91408855 4.39379118,6.83168317 5.38517442,6.83168317 C6.37655765,6.83168317 7.18023256,5.91408855 7.18023256,4.78217822 C7.18023256,3.65026789 6.37655765,2.73267327 5.38517442,2.73267327 Z" id="path-3"></path>
    </defs>
    <g id="Page-1" stroke="none" stroke-width="1" fill="none" fill-rule="evenodd">
        <g id="Logo" transform="translate(-87.000000, -92.000000)">
            <g id="Group" transform="translate(87.000000, 92.000000)">
                <use id="Rectangle-Copy-2" stroke="#979797" mask="url(#mask-2)" stroke-width="2" stroke-dasharray="10" xlink:href="#path-1"></use>
                <path d="M38.5465116,12.980198 L65,12.980198 L65,38.2574257 L38.5465116,38.2574257 L38.5465116,12.980198 Z" id="Rectangle-Copy-4" fill-opacity="0.2" fill="#154945"></path>
                <path d="M38.5465116,43.7227723 L65,43.7227723 L65,69 L38.5465116,69 L38.5465116,43.7227723 Z" id="Rectangle-Copy-5" fill-opacity="0.2" fill="#87A428"></path>
                <rect id="Rectangle-Copy-6" fill-opacity="0.5" fill="#D8DBD6" x="8.31395349" y="38.2574257" width="26.4534884" height="25.2772277"></rect>
                <g transform="translate(14.360465, 42.356436)" id="users-copy" opacity="0.461890811">
                    <g>
                        <mask id="mask-4" fill="white">
                            <use xlink:href="#path-3"></use>
                        </mask>
                        <use id="Combined-Shape" fill="#000000" fill-rule="nonzero" xlink:href="#path-3"></use>
                        <g id="Group" mask="url(#mask-4)" fill="#000000">
                            <g id="🎨Color">
                                <rect id="Rectangle" x="0" y="0" width="14.3604651" height="16.3960396"></rect>
                            </g>
                        </g>
                    </g>
                </g>
            </g>
        </g>
    </g>
</svg>